<?xml version="1.0" encoding="UTF-8" standalone="no"?>
<!DOCTYPE svg PUBLIC "-//W3C//DTD SVG 1.1//EN" "http://www.w3.org/Graphics/SVG/1.1/DTD/svg11.dtd">
<svg width="100%" height="100%" viewBox="0 0 256 256" version="1.1" xmlns="http://www.w3.org/2000/svg" xmlns:xlink="http://www.w3.org/1999/xlink" xml:space="preserve" xmlns:serif="http://www.serif.com/" style="fill-rule:evenodd;clip-rule:evenodd;stroke-linejoin:round;stroke-miterlimit:2;">
    <g transform="matrix(1,0,0,1,-12.3944,1.49144e-06)">
        <g transform="matrix(0.853672,0,0,0.884914,0.344192,23.1472)">
            <path d="M97.399,192.327L97.399,105.44L130.552,89.103L130.503,192.327L97.399,192.327ZM50.898,73.545L35.036,48.719L177.101,48.72L177.2,73.545L50.898,73.545Z" style="fill:rgb(48,48,59);fill-rule:nonzero;"/>
        </g>
        <g transform="matrix(0.856344,0,0,0.884914,56.7691,23.1462)">
            <path d="M86.1,192.327L86.1,167.511L120.992,167.511C127.438,167.511 132.483,165.681 136.126,162.019C139.77,158.358 141.591,153.883 141.591,148.594C141.591,144.933 140.751,141.678 139.069,138.831C137.387,135.983 135.04,133.746 132.027,132.118C129.015,130.491 125.336,129.677 120.992,129.677L86.1,129.677L86.1,105.472L118.26,105.472C123.725,105.472 128.139,104.149 131.502,101.505C134.865,98.861 136.547,94.826 136.547,89.402C136.547,84.114 134.865,80.147 131.502,77.503C128.139,74.858 123.725,73.536 118.26,73.536L86.1,73.536L86.1,48.72L124.566,48.72C134.094,48.72 142.187,50.415 148.843,53.806C155.499,57.196 160.579,61.739 164.082,67.434C167.586,73.129 169.337,79.435 169.337,86.351C169.337,95.165 166.395,102.624 160.509,108.726C154.624,114.828 145.935,119.032 134.445,121.338L135.286,110.557C147.757,112.862 157.391,117.541 164.187,124.592C170.984,131.644 174.382,140.322 174.382,150.629C174.382,158.494 172.385,165.579 168.391,171.885C164.398,178.19 158.652,183.174 151.155,186.835C143.658,190.497 134.655,192.327 124.145,192.327L86.1,192.327Z" style="fill:rgb(48,48,59);fill-rule:nonzero;"/>
        </g>
        <g transform="matrix(0.400789,0,0,0.884914,182.38,23.1462)">
            <path d="M113.95,194.565C102.273,194.565 92.542,192.734 84.757,189.073C76.973,185.412 73.081,181.004 73.081,175.851C73.081,170.427 76.973,165.918 84.757,162.325C92.542,158.731 102.273,156.934 113.95,156.934C125.926,156.934 135.732,158.731 143.367,162.325C151.002,165.918 154.819,170.427 154.819,175.851C154.819,181.004 151.002,185.412 143.367,189.073C135.732,192.734 125.926,194.565 113.95,194.565Z" style="fill:rgb(173,70,255);fill-rule:nonzero;"/>
        </g>
    </g>
</svg>
