<svg xmlns="http://www.w3.org/2000/svg" viewBox="0 0 256 361">
  <path d="M255.555,70.766L232.314,331.126L127.844,360.088L23.662,331.166L0.445,70.766L255.555,70.766ZM207.892,123.995L47.917,123.995L48.681,132.563L56.531,220.573L167.217,220.573L163.509,261.993L127.889,271.607L127.889,271.609L127.86,271.617L92.292,262.013L90.018,236.542L57.958,236.542L62.432,286.688L127.853,304.848L128,304.808L128,304.802L193.362,286.688L193.842,281.292L201.348,197.212L202.127,188.636L85.739,188.636L82.82,155.932L205.033,155.932L205.673,148.754L207.129,132.563L207.892,123.995Z" currentColor="rgb(228,77,38)" fill-rule="nonzero"/>
    <path d="M24.18,0L40.41,0L40.41,16.035L55.257,16.035L55.257,0L71.488,0L71.488,48.558L55.258,48.558L55.258,32.298L40.411,32.298L40.411,48.558L24.181,48.558L24.181,0M92.833,16.103L78.544,16.103L78.544,0L123.358,0L123.358,16.103L109.063,16.103L109.063,48.558L92.833,48.558L92.833,16.103ZM130.47,0L147.393,0L157.803,17.062L168.203,0L185.133,0L185.133,48.558L168.969,48.558L168.969,24.49L157.803,41.755L157.523,41.755L146.35,24.49L146.35,48.558L130.47,48.558L130.47,0ZM193.21,0L209.445,0L209.445,32.508L232.269,32.508L232.269,48.558L193.209,48.558L193.21,0Z" fill-rule="nonzero"/>
    <path d="M128,123.995L207.892,123.995L207.129,132.563L205.673,148.754L205.033,155.932L128,155.932L128,188.636L202.127,188.636L201.348,197.212L193.842,281.292L193.362,286.688L128,304.802L128,337.95L212.417,314.547L232.277,92.057L128,92.057L128,123.995ZM128,220.573L128,271.577L163.509,261.993L167.217,220.573L128,220.573Z" currentColor="rgb(241,101,41)" fill-rule="nonzero"/>
</svg>