<svg xmlns="http://www.w3.org/2000/svg" viewBox="0 0 256 285"><defs><linearGradient id="SVGhL7Bld0f" x1="17.42%" x2="56.516%" y1="21.86%" y2="97.437%"><stop offset="0%" stop-color="#927be5"/><stop offset="100%" stop-color="#512bd4"/></linearGradient></defs>
  <path d="M0,89.356L0,194.931C0,207.991 6.967,220.071 18.286,226.597L109.715,279.391C121.015,285.918 134.986,285.918 146.286,279.391L237.715,226.597C249.016,220.075 256.001,207.978 256,194.93L256,89.356C256.003,76.306 249.018,64.207 237.715,57.684L146.285,4.904C134.985,-1.625 121.015,-1.625 109.715,4.904L18.285,57.684C6.984,64.209 -0.001,76.307 0,89.356ZM210.293,160.447C210.293,160.451 210.293,160.454 210.293,160.458C210.293,165.469 206.17,169.592 201.159,169.592L192.002,169.592L192.002,178.732C192.002,181.159 191.042,183.485 189.324,185.198C187.613,186.916 185.285,187.883 182.86,187.883C180.435,187.883 178.107,186.916 176.396,185.198C174.684,183.482 173.72,181.155 173.717,178.731L173.717,169.591L155.433,169.591L155.433,178.753C155.433,183.758 151.314,187.877 146.309,187.877L146.271,187.877C141.266,187.877 137.147,183.758 137.147,178.753L137.147,169.591L127.997,169.591C122.982,169.591 118.855,165.464 118.855,160.449C118.855,155.434 122.982,151.307 127.997,151.307L137.142,151.307L137.142,133.022L127.997,133.022C122.982,133.022 118.855,128.895 118.855,123.88C118.855,118.864 122.982,114.737 127.997,114.737L137.142,114.737L137.142,105.592C137.142,100.577 141.269,96.45 146.284,96.45C151.3,96.45 155.427,100.577 155.427,105.592L155.427,114.732L173.712,114.732L173.712,105.592C173.712,100.577 177.839,96.45 182.854,96.45C187.87,96.45 191.997,100.577 191.997,105.592L191.997,114.732L201.142,114.732C203.565,114.731 205.891,115.695 207.603,117.41C209.321,119.121 210.288,121.449 210.288,123.874C210.288,126.299 209.321,128.627 207.603,130.338C205.892,132.054 203.566,133.02 201.143,133.022L191.997,133.022L191.997,151.307L201.142,151.307C206.153,151.318 210.273,155.436 210.287,160.447L210.293,160.447ZM64.003,123.872L64.003,160.462C64.003,165.471 68.124,169.592 73.133,169.592L73.153,169.592C78.167,169.592 82.293,165.466 82.293,160.452C82.293,160.45 82.293,160.449 82.293,160.447C82.293,155.432 86.42,151.305 91.435,151.305C96.451,151.305 100.578,155.432 100.578,160.447C100.578,175.596 88.298,187.877 73.148,187.877C57.998,187.877 45.718,175.596 45.718,160.447L45.718,123.877C45.718,108.727 57.998,96.447 73.148,96.447C88.298,96.447 100.578,108.727 100.578,123.877C100.578,128.892 96.451,133.02 91.436,133.02C86.42,133.02 82.293,128.892 82.293,123.877C82.293,118.862 78.166,114.735 73.151,114.735C68.135,114.735 64.008,118.862 64.008,123.877L64.003,123.872ZM173.717,133.022L155.433,133.022L155.433,151.307L173.717,151.307L173.717,133.022ZM0,89.356L0,89.355L0,89.356Z" currentColor="url(#SVGhL7Bld0f)" fill-rule="nonzero"/>
</svg>