<?xml version="1.0" encoding="UTF-8" standalone="no"?>
<!DOCTYPE svg PUBLIC "-//W3C//DTD SVG 1.1//EN" "http://www.w3.org/Graphics/SVG/1.1/DTD/svg11.dtd">
<svg width="100%" height="100%" viewBox="0 0 128 128" version="1.1" xmlns="http://www.w3.org/2000/svg" xmlns:xlink="http://www.w3.org/1999/xlink" xml:space="preserve" xmlns:serif="http://www.serif.com/" style="fill-rule:evenodd;clip-rule:evenodd;stroke-linejoin:round;stroke-miterlimit:2;">
    <path d="M0,64C0,82.593 28.654,97.667 64,97.667C99.346,97.667 128,82.593 128,64C128,45.407 99.345,30.333 64,30.333C28.654,30.333 0,45.407 0,64ZM84.066,48.421L84.097,48.42L98.23,48.42C102.672,48.42 105.978,49.626 108.056,52.005C110.145,54.395 110.79,57.739 109.973,61.94C109.661,63.595 109.087,65.189 108.274,66.664C107.446,68.128 106.39,69.452 105.146,70.584C103.616,72.016 101.881,73.056 99.999,73.667C98.205,74.252 95.915,74.558 93.193,74.576L92.928,74.577L87.205,74.577L85.572,82.985C85.509,83.31 85.221,83.547 84.889,83.547L77.54,83.547L77.539,83.547C77.158,83.547 76.845,83.234 76.845,82.853C76.845,82.808 76.849,82.763 76.858,82.719L83.415,48.981C83.477,48.666 83.748,48.435 84.066,48.421ZM52.944,59.048L52.942,59.129L52.938,59.218L52.934,59.307L52.93,59.397L52.925,59.487L52.919,59.577L52.913,59.668L52.907,59.759L52.9,59.85L52.892,59.942L52.884,60.034L52.875,60.126L52.865,60.224L52.856,60.317L52.845,60.41L52.834,60.503L52.823,60.597L52.811,60.691L52.799,60.785L52.786,60.879L52.772,60.974L52.758,61.069L52.744,61.165L52.729,61.261L52.713,61.357L52.697,61.453L52.68,61.55L52.663,61.647L52.645,61.744L52.627,61.842C52.621,61.875 52.614,61.907 52.608,61.94C52.598,61.99 52.588,62.039 52.578,62.089L52.575,62.106C52.565,62.153 52.556,62.199 52.546,62.246L52.541,62.27C52.531,62.315 52.521,62.361 52.51,62.407L52.505,62.431C52.495,62.477 52.484,62.523 52.474,62.569L52.469,62.589C52.458,62.636 52.446,62.684 52.435,62.731L52.414,62.816L52.396,62.889L52.394,62.895C52.383,62.94 52.371,62.985 52.359,63.03L52.352,63.056C52.341,63.099 52.329,63.142 52.318,63.186L52.314,63.2L52.309,63.215C52.298,63.258 52.286,63.3 52.274,63.343L52.271,63.354L52.265,63.372C52.253,63.415 52.241,63.458 52.228,63.501L52.203,63.584L52.187,63.639L52.178,63.668C52.166,63.707 52.154,63.747 52.141,63.786L52.133,63.811L52.128,63.827C52.116,63.864 52.105,63.901 52.093,63.938L52.085,63.962L52.077,63.986C52.065,64.021 52.054,64.056 52.042,64.091L52.035,64.112L52.024,64.145L52.016,64.168L51.997,64.223L51.984,64.261L51.969,64.304L51.959,64.333L51.942,64.38L51.931,64.41L51.91,64.468L51.9,64.496L51.892,64.518C51.616,65.268 51.287,65.985 50.908,66.664C50.08,68.129 49.024,69.452 47.78,70.584C46.249,72.016 44.516,73.056 42.633,73.667C40.839,74.252 38.549,74.558 35.828,74.576L35.563,74.577L29.839,74.577L28.205,82.985C28.144,83.3 27.872,83.532 27.554,83.546L27.523,83.547L20.173,83.547C19.793,83.546 19.48,83.233 19.48,82.853C19.48,82.808 19.484,82.763 19.493,82.719L26.05,48.981C26.114,48.657 26.4,48.421 26.73,48.42L40.864,48.42C45.306,48.42 48.612,49.626 50.691,52.005C52.275,53.818 53.029,56.18 52.944,59.048ZM58.019,39.45L65.309,39.45L65.327,39.45C65.7,39.46 66.004,39.77 66.004,40.145C66.004,40.189 66,40.233 65.992,40.276L64.41,48.42L70.063,48.42C74.37,48.42 77.29,49.178 78.991,50.741C80.724,52.334 81.266,54.881 80.599,58.314L77.548,74.016C77.486,74.33 77.214,74.561 76.897,74.575L76.866,74.576L69.459,74.576L69.459,74.577L69.458,74.577C69.077,74.577 68.764,74.264 68.764,73.883C68.764,73.838 68.768,73.794 68.777,73.75L71.677,58.822C71.954,57.402 71.886,56.384 71.487,55.952C71.246,55.693 70.531,55.262 68.438,55.248L68.337,55.248L63.081,55.248L59.435,74.016C59.371,74.341 59.083,74.577 58.752,74.576L51.462,74.576C51.08,74.576 50.767,74.262 50.767,73.881C50.767,73.837 50.771,73.793 50.779,73.75L57.337,40.011C57.401,39.686 57.688,39.45 58.019,39.45ZM88.508,67.864L92.136,67.864L92.266,67.864C94.994,67.848 97.035,67.333 98.334,66.334C99.638,65.328 100.54,63.587 101.013,61.159C101.453,58.889 101.286,57.305 100.513,56.449C99.725,55.575 98.02,55.132 95.446,55.132L90.983,55.132L88.508,67.864ZM31.144,67.864L34.772,67.864L34.902,67.864C37.63,67.848 39.67,67.333 40.968,66.334C42.274,65.328 43.175,63.587 43.648,61.159C44.088,58.889 43.92,57.305 43.148,56.449C42.36,55.575 40.655,55.132 38.081,55.132L33.617,55.132L31.144,67.864Z" style="currentColor:url(#_Radial1);fill-rule:nonzero;"/>
    <path d="M64,95.167C97.965,95.167 125.5,81.212 125.5,64C125.5,46.786 97.965,32.833 64,32.833C30.035,32.833 2.5,46.786 2.5,64C2.5,81.212 30.035,95.167 64,95.167ZM84.066,48.421L84.097,48.42L98.23,48.42C102.672,48.42 105.978,49.626 108.056,52.005C110.145,54.395 110.79,57.739 109.973,61.94C109.661,63.595 109.087,65.189 108.274,66.664C107.446,68.128 106.39,69.452 105.146,70.584C103.616,72.016 101.881,73.056 99.999,73.667C98.205,74.252 95.915,74.558 93.193,74.576L92.928,74.577L87.205,74.577L85.572,82.985C85.509,83.31 85.221,83.547 84.889,83.547L77.54,83.547L77.539,83.547C77.158,83.547 76.845,83.234 76.845,82.853C76.845,82.808 76.849,82.763 76.858,82.719L83.415,48.981C83.477,48.666 83.748,48.435 84.066,48.421ZM52.944,59.048L52.942,59.129L52.938,59.218L52.934,59.307L52.93,59.397L52.925,59.487L52.919,59.577L52.913,59.668L52.907,59.759L52.9,59.85L52.892,59.942L52.884,60.034L52.875,60.126L52.865,60.224L52.856,60.317L52.845,60.41L52.834,60.503L52.823,60.597L52.811,60.691L52.799,60.785L52.786,60.879L52.772,60.974L52.758,61.069L52.744,61.165L52.729,61.261L52.713,61.357L52.697,61.453L52.68,61.55L52.663,61.647L52.645,61.744L52.627,61.842C52.621,61.875 52.614,61.907 52.608,61.94C52.598,61.99 52.588,62.039 52.578,62.089L52.575,62.106C52.565,62.153 52.556,62.199 52.546,62.246L52.541,62.27C52.531,62.315 52.521,62.361 52.51,62.407L52.505,62.431C52.495,62.477 52.484,62.523 52.474,62.569L52.469,62.589C52.458,62.636 52.446,62.684 52.435,62.731L52.414,62.816L52.396,62.889L52.394,62.895C52.383,62.94 52.371,62.985 52.359,63.03L52.352,63.056C52.341,63.099 52.329,63.142 52.318,63.186L52.314,63.2L52.309,63.215C52.298,63.258 52.286,63.3 52.274,63.343L52.271,63.354L52.265,63.372C52.253,63.415 52.241,63.458 52.228,63.501L52.203,63.584L52.187,63.639L52.178,63.668C52.166,63.707 52.154,63.747 52.141,63.786L52.133,63.811L52.128,63.827C52.116,63.864 52.105,63.901 52.093,63.938L52.085,63.962L52.077,63.986C52.065,64.021 52.054,64.056 52.042,64.091L52.035,64.112L52.024,64.145L52.016,64.168L51.997,64.223L51.984,64.261L51.969,64.304L51.959,64.333L51.942,64.38L51.931,64.41L51.91,64.468L51.9,64.496L51.892,64.518C51.616,65.268 51.287,65.985 50.908,66.664C50.08,68.129 49.024,69.452 47.78,70.584C46.249,72.016 44.516,73.056 42.633,73.667C40.839,74.252 38.549,74.558 35.828,74.576L35.563,74.577L29.839,74.577L28.205,82.985C28.144,83.3 27.872,83.532 27.554,83.546L27.523,83.547L20.173,83.547C19.793,83.546 19.48,83.233 19.48,82.853C19.48,82.808 19.484,82.763 19.493,82.719L26.05,48.981C26.114,48.657 26.4,48.421 26.73,48.42L40.864,48.42C45.306,48.42 48.612,49.626 50.691,52.005C52.275,53.818 53.029,56.18 52.944,59.048ZM58.019,39.45L65.309,39.45L65.327,39.45C65.7,39.46 66.004,39.77 66.004,40.145C66.004,40.189 66,40.233 65.992,40.276L64.41,48.42L70.063,48.42C74.37,48.42 77.29,49.178 78.991,50.741C80.724,52.334 81.266,54.881 80.599,58.314L77.548,74.016C77.486,74.33 77.214,74.561 76.897,74.575L76.866,74.576L69.459,74.576L69.459,74.577L69.458,74.577C69.077,74.577 68.764,74.264 68.764,73.883C68.764,73.838 68.768,73.794 68.777,73.75L71.677,58.822C71.954,57.402 71.886,56.384 71.487,55.952C71.246,55.693 70.531,55.262 68.438,55.248L68.337,55.248L63.081,55.248L59.435,74.016C59.371,74.341 59.083,74.577 58.752,74.576L51.462,74.576C51.08,74.576 50.767,74.262 50.767,73.881C50.767,73.837 50.771,73.793 50.779,73.75L57.337,40.011C57.401,39.686 57.688,39.45 58.019,39.45ZM88.508,67.864L92.136,67.864L92.266,67.864C94.994,67.848 97.035,67.333 98.334,66.334C99.638,65.328 100.54,63.587 101.013,61.159C101.453,58.889 101.286,57.305 100.513,56.449C99.725,55.575 98.02,55.132 95.446,55.132L90.983,55.132L88.508,67.864ZM31.144,67.864L34.772,67.864L34.902,67.864C37.63,67.848 39.67,67.333 40.968,66.334C42.274,65.328 43.175,63.587 43.648,61.159C44.088,58.889 43.92,57.305 43.148,56.449C42.36,55.575 40.655,55.132 38.081,55.132L33.617,55.132L31.144,67.864Z" style="currentColor:rgb(119,123,179);fill-rule:nonzero;"/>
    <defs>
        <radialGradient id="_Radial1" cx="0" cy="0" r="1" gradientUnits="userSpaceOnUse" gradientTransform="matrix(84.0414,0,0,84.0414,38.426,42.169)"><stop offset="0" style="stop-color:rgb(174,178,213);stop-opacity:1"/><stop offset="0.3" style="stop-color:rgb(174,178,213);stop-opacity:1"/><stop offset="0.75" style="stop-color:rgb(72,76,137);stop-opacity:1"/><stop offset="1" style="stop-color:rgb(72,76,137);stop-opacity:1"/></radialGradient>
    </defs>
</svg>
