<svg xmlns="http://www.w3.org/2000/svg" viewBox="0 0 256 361"><path d="M127.844,360.088L23.662,331.166L0.445,70.766L255.555,70.766L232.314,331.126L127.844,360.088ZM56.531,220.573L167.217,220.573L163.509,261.993L127.889,271.607L127.889,271.609L127.86,271.617L92.292,262.013L90.018,236.542L57.958,236.542L62.432,286.688L127.853,304.848L128,304.808L128,304.802L193.362,286.688L193.842,281.292L201.348,197.212L202.127,188.636L207.892,123.995L47.917,123.995L50.82,155.932L172.892,155.932L169.986,188.636L53.669,188.636L56.531,220.573Z" currentColor="rgb(38,77,228)" fill-rule="nonzero"/>
    <path d="M128,123.995L207.892,123.995L202.127,188.636L201.348,197.212L193.842,281.292L193.362,286.688L128,304.802L128,337.95L212.417,314.547L232.277,92.057L128,92.057L128,123.995ZM128,220.573L128,271.577L163.509,261.993L167.217,220.573L128,220.573ZM128,155.932L128,188.636L169.986,188.636L172.892,155.932L128,155.932Z" currentColor="rgb(41,101,241)" fill-rule="nonzero"/>
    <path d="M60.484,0L99.164,0L99.164,16.176L76.66,16.176L76.66,32.352L99.166,32.352L99.166,48.527L60.484,48.527L60.484,0ZM106.901,0L145.582,0L145.582,14.066L123.077,14.066L123.077,16.879L145.582,16.879L145.582,49.231L106.902,49.231L106.902,34.46L129.407,34.46L129.407,31.647L106.9,31.647L106.901,0ZM153.319,0L192,0L192,14.066L169.495,14.066L169.495,16.879L192,16.879L192,49.231L153.319,49.231L153.319,34.46L175.824,34.46L175.824,31.647L153.32,31.647L153.319,0Z" fill-rule="nonzero"/>
</svg>